<?xml version="1.0" encoding="UTF-8"?>
<svg width="785px" height="715px" viewBox="0 0 785 715" version="1.1" xmlns="http://www.w3.org/2000/svg" xmlns:xlink="http://www.w3.org/1999/xlink">
    <title>Group 327</title>
    <g id="Page-1" stroke="none" stroke-width="1" fill="none" fill-rule="evenodd">
        <g id="Group-327">
            <g id="Group" transform="translate(107.629000, 615.545000)" fill="#FFFFFF" fill-rule="nonzero" font-family="Metropolis-Bold, Metropolis" font-size="27" font-weight="bold">
                <text id="Biofuels">
                    <tspan x="0" y="26">Biofuels</tspan>
                </text>
            </g>
            <rect id="Rectangle" fill="#9CAF2C" fill-rule="nonzero" x="60.629" y="616.545" width="32" height="32"></rect>
            <g id="Group" transform="translate(107.629000, 549.545000)" fill="#FFFFFF" fill-rule="nonzero" font-family="Metropolis-Bold, Metropolis" font-size="27" font-weight="bold">
                <text id="Gas">
                    <tspan x="0" y="26">Gas</tspan>
                </text>
            </g>
            <rect id="Rectangle" fill="#BBBDC0" fill-rule="nonzero" x="60.629" y="550.545" width="32" height="32"></rect>
            <g id="Group" transform="translate(359.000000, 615.545000)" fill="#FFFFFF" fill-rule="nonzero" font-family="Metropolis-Bold, Metropolis" font-size="27" font-weight="bold">
                <text id="Solar">
                    <tspan x="0" y="26">Solar</tspan>
                </text>
            </g>
            <rect id="Rectangle" fill="#F7D974" fill-rule="nonzero" x="312" y="616.545" width="32" height="32"></rect>
            <g id="Group" transform="translate(107.629000, 681.545000)" fill="#FFFFFF" fill-rule="nonzero" font-family="Metropolis-Bold, Metropolis" font-size="27" font-weight="bold">
                <text id="Nuclear">
                    <tspan x="0" y="26">Nuclear</tspan>
                </text>
            </g>
            <rect id="Rectangle" fill="#EE8905" fill-rule="nonzero" x="60.629" y="682.545" width="32" height="32"></rect>
            <g id="Group" transform="translate(107.629000, 483.545000)" fill="#FFFFFF" fill-rule="nonzero" font-family="Metropolis-Bold, Metropolis" font-size="27" font-weight="bold">
                <text id="Coal">
                    <tspan x="0" y="26">Coal</tspan>
                </text>
            </g>
            <rect id="Rectangle" fill="#57585B" fill-rule="nonzero" x="60.629" y="484.545" width="32" height="32"></rect>
            <g id="Group" transform="translate(359.000000, 549.545000)" fill="#FFFFFF" fill-rule="nonzero" font-family="Metropolis-Bold, Metropolis" font-size="27" font-weight="bold">
                <text id="Wind">
                    <tspan x="0" y="26">Wind</tspan>
                </text>
            </g>
            <rect id="Rectangle" fill="#3DADF2" fill-rule="nonzero" x="312" y="550.545" width="32" height="32"></rect>
            <rect id="Rectangle" fill="#04A091" fill-rule="nonzero" x="312" y="484.545" width="32" height="32"></rect>
            <g id="Group" transform="translate(359.000000, 483.545000)" fill="#FFFFFF" fill-rule="nonzero" font-family="Metropolis-Bold, Metropolis" font-size="27" font-weight="bold">
                <text id="Hydro">
                    <tspan x="0" y="26">Hydro</tspan>
                </text>
            </g>
            <g id="Group" transform="translate(6.000000, 399.000000)" fill="#FFFFFF" fill-rule="nonzero" font-family="Helvetica" font-size="18" font-weight="normal">
                <text id="0">
                    <tspan x="0.444" y="18">0</tspan>
                </text>
            </g>
            <g id="Group" transform="translate(2.000000, 101.000000)" fill="#FFFFFF" fill-rule="nonzero" font-family="Helvetica" font-size="18" font-weight="normal">
                <text id="12">
                    <tspan x="0.142" y="18">12</tspan>
                </text>
            </g>
            <g id="Group" transform="translate(1.000000, 49.000000)" fill="#FFFFFF" fill-rule="nonzero" font-family="Helvetica" font-size="18" font-weight="normal">
                <text id="14">
                    <tspan x="0.134" y="18">14</tspan>
                </text>
            </g>
            <g id="Group" transform="translate(3.000000, 0.000000)" fill="#FFFFFF" fill-rule="nonzero" font-family="Helvetica" font-size="18" font-weight="normal">
                <text id="15">
                    <tspan x="0.494" y="18">15</tspan>
                </text>
            </g>
            <g id="Group" transform="translate(0.000000, 153.000000)" fill="#FFFFFF" fill-rule="nonzero" font-family="Helvetica" font-size="18" font-weight="normal">
                <text id="10">
                    <tspan x="0.828" y="18">10</tspan>
                </text>
            </g>
            <g id="Group" transform="translate(6.000000, 204.000000)" fill="#FFFFFF" fill-rule="nonzero" font-family="Helvetica" font-size="18" font-weight="normal">
                <text id="8">
                    <tspan x="0.552" y="18">8</tspan>
                </text>
            </g>
            <g id="Group" transform="translate(5.000000, 255.000000)" fill="#FFFFFF" fill-rule="nonzero" font-family="Helvetica" font-size="18" font-weight="normal">
                <text id="6">
                    <tspan x="0.948" y="18">6</tspan>
                </text>
            </g>
            <g id="Group" transform="translate(6.000000, 306.000000)" fill="#FFFFFF" fill-rule="nonzero" font-family="Helvetica" font-size="18" font-weight="normal">
                <text id="4">
                    <tspan x="0.75" y="18">4</tspan>
                </text>
            </g>
            <g id="Group" transform="translate(4.000000, 356.000000)" fill="#FFFFFF" fill-rule="nonzero" font-family="Helvetica" font-size="18" font-weight="normal">
                <text id="2">
                    <tspan x="0.758" y="18">2</tspan>
                </text>
            </g>
            <g id="Group" opacity="0.3" transform="translate(26.000000, 13.000000)" stroke="#FFFFFF">
                <line x1="0.5" y1="49.5" x2="758.72" y2="49.5" id="Path"></line>
                <line x1="0.5" y1="0.854" x2="758.72" y2="0.854" id="Path"></line>
                <line x1="0.5" y1="100.5" x2="758.72" y2="100.5" id="Path"></line>
                <line x1="0.5" y1="151.5" x2="758.72" y2="151.5" id="Path"></line>
                <line x1="0.5" y1="202.5" x2="758.72" y2="202.5" id="Path"></line>
                <line x1="0.5" y1="253.5" x2="758.72" y2="253.5" id="Path"></line>
                <line x1="0.5" y1="304.5" x2="758.72" y2="304.5" id="Path"></line>
                <line x1="0.5" y1="354.5" x2="758.72" y2="354.5" id="Path"></line>
            </g>
            <g id="Group" opacity="0.45" transform="translate(44.000000, 62.000000)" fill-rule="nonzero">
                <g transform="translate(0.072000, 0.449000)" id="Path">
                    <path d="M0.928,356.232 L0.928,235.973 L20.465,234.591 L31.524,231.491 L48.332,231.491 L63.15,236.578 L79.737,231.491 L112.691,232.818 L177.272,232.818 L191.205,234.145 L207.129,229.28 L222.829,231.049 C222.829,231.049 334.739,239.785 388.814,165.473 C442.889,91.161 495.308,-1.062 567.3,0.6 C639.292,2.262 716.918,14.2 716.918,14.2 L717.93,356.232 L0.928,356.232 Z" fill="#F7D974"></path>
                    <path d="M0.928,356.231 L0.928,235.972 L20.465,234.59 L31.524,231.49 L48.332,231.49 L63.15,236.577 L79.737,231.49 L97.049,232.19 L110.977,233.732 L177.741,234.064 L190.762,235.474 L207.018,231.493 C207.018,231.493 276.132,237.243 302.894,235.693 C329.656,234.143 371.566,235.14 435.594,192.345 C499.622,149.55 534.455,145.237 659.856,156.516 C698.671,160.829 717.356,163.152 717.356,163.152 L717.927,356.231 L0.928,356.231 Z" fill="#3DADF2"></path>
                    <path d="M0.928,356.232 L0.928,235.977 L20.465,234.595 L27.61,232.595 L48.11,233.711 L64.034,238.853 L79.211,234.485 L122.643,238.577 L164.554,239.904 L191.536,243.443 L207.571,240.236 C207.571,240.236 281.993,251.571 323.96,262.021 C365.927,272.471 502.938,307.802 587.202,311.121 C671.466,314.44 717.808,315.764 717.808,315.764 L717.928,356.239 L0.928,356.232 Z" fill="#04A091"></path>
                    <path d="M0.928,356.232 L0.928,245.206 L14.494,244.101 L30.86,239.678 L47.447,241.668 L63.147,247.64 L80.177,242.332 L94.777,245.65 L156.703,246.977 L175.06,248.746 L190.099,252.727 L207.571,248.967 C207.571,248.967 294.6,257.367 401.754,291.541 C508.908,325.715 620.742,329.361 717.927,329.361 L717.927,356.232 L0.928,356.232 Z" fill="#EE8905"></path>
                    <path d="M0.927,356.232 L0.927,277.043 L14.494,276.255 L30.86,273.1 L47.447,274.52 L63.147,278.779 L80.177,274.993 L94.777,277.359 L156.703,278.306 L175.06,279.568 L190.099,282.407 L207.571,279.725 C207.571,279.725 294.6,285.719 401.754,310.091 C508.908,334.463 620.742,356.232 717.927,356.232 L0.927,356.232 L0.927,356.232 Z" fill="#9CAF2C"></path>
                    <path d="M0.928,356.232 L1.26,268.318 C1.26,268.318 15.379,267.318 16.153,267.318 C16.927,267.318 30.197,265.218 30.197,265.218 L48.997,266.103 L64.037,272.403 C64.037,272.403 79.85,266.542 80.514,266.763 C81.178,266.984 95.222,269.527 95.222,269.527 L160.41,271.794 L191.595,277.765 L208.182,274.116 C208.182,274.116 296.924,286.116 362.611,305.798 C428.298,325.48 540.13,358.546 717.93,353.898 L717.93,356.22 L0.928,356.232 Z" fill="#BBBDC0"></path>
                    <path d="M0.928,356.231 L1.26,293.863 L48.112,293.863 L62.267,301.382 L79.075,298.507 L95.441,302.488 L111.586,308.681 L128.173,307.133 L144.76,306.027 L160.46,313.989 L180.586,316.864 L207.347,319.518 C207.347,319.518 260.427,342.961 321.469,347.274 C382.511,351.587 434.927,356.231 543.74,356.231 L0.928,356.231 Z" fill="#57585B"></path>
                </g>
            </g>
            <g id="Group" transform="translate(44.000000, 62.000000)" fill-rule="nonzero">
                <g transform="translate(0.072000, 0.449000)" id="Path">
                    <path d="M0.928,356.232 L0.928,235.973 L20.465,234.591 L31.524,231.491 L48.332,231.491 L63.15,236.578 L79.737,231.491 L112.691,232.818 L177.272,232.818 L191.205,234.145 L207.129,229.28 L222.829,231.049 C222.829,231.049 334.739,239.785 388.814,165.473 C442.889,91.161 495.308,-1.062 567.3,0.6 C639.292,2.262 716.918,14.2 716.918,14.2 L717.93,356.232 L0.928,356.232 Z" fill="#F7D974"></path>
                    <path d="M0.928,356.231 L0.928,235.972 L20.465,234.59 L31.524,231.49 L48.332,231.49 L63.15,236.577 L79.737,231.49 L97.049,232.19 L110.977,233.732 L177.741,234.064 L190.762,235.474 L207.018,231.493 C207.018,231.493 276.132,237.243 302.894,235.693 C329.656,234.143 371.566,235.14 435.594,192.345 C499.622,149.55 534.455,145.237 659.856,156.516 C698.671,160.829 717.356,163.152 717.356,163.152 L717.927,356.231 L0.928,356.231 Z" fill="#3DADF2"></path>
                    <path d="M0.928,356.232 L0.928,235.977 L20.465,234.595 L27.61,232.595 L48.11,233.711 L64.034,238.853 L79.211,234.485 L122.643,238.577 L164.554,239.904 L191.536,243.443 L207.571,240.236 C207.571,240.236 281.993,251.571 323.96,262.021 C365.927,272.471 502.938,307.802 587.202,311.121 C671.466,314.44 717.808,315.764 717.808,315.764 L717.928,356.239 L0.928,356.232 Z" fill="#04A091"></path>
                    <path d="M0.928,356.232 L0.928,245.206 L14.494,244.101 L30.86,239.678 L47.447,241.668 L63.147,247.64 L80.177,242.332 L94.777,245.65 L156.703,246.977 L175.06,248.746 L190.099,252.727 L207.571,248.967 C207.571,248.967 294.6,257.367 401.754,291.541 C508.908,325.715 620.742,329.361 717.927,329.361 L717.927,356.232 L0.928,356.232 Z" fill="#EE8905"></path>
                    <path d="M0.927,356.232 L0.927,277.043 L14.494,276.255 L30.86,273.1 L47.447,274.52 L63.147,278.779 L80.177,274.993 L94.777,277.359 L156.703,278.306 L175.06,279.568 L190.099,282.407 L207.571,279.725 C207.571,279.725 294.6,285.719 401.754,310.091 C508.908,334.463 620.742,356.232 717.927,356.232 L0.927,356.232 L0.927,356.232 Z" fill="#9CAF2C"></path>
                    <path d="M0.928,356.232 L1.26,268.318 C1.26,268.318 15.379,267.318 16.153,267.318 C16.927,267.318 30.197,265.218 30.197,265.218 L48.997,266.103 L64.037,272.403 C64.037,272.403 79.85,266.542 80.514,266.763 C81.178,266.984 95.222,269.527 95.222,269.527 L160.41,271.794 L191.595,277.765 L208.182,274.116 C208.182,274.116 296.924,286.116 362.611,305.798 C428.298,325.48 540.13,358.546 717.93,353.898 L717.93,356.22 L0.928,356.232 Z" fill="#BBBDC0"></path>
                    <path d="M0.928,356.231 L1.26,293.863 L48.112,293.863 L62.267,301.382 L79.075,298.507 L95.441,302.488 L111.586,308.681 L128.173,307.133 L144.76,306.027 L160.46,313.989 L180.586,316.864 L207.347,319.518 C207.347,319.518 260.427,342.961 321.469,347.274 C382.511,351.587 434.927,356.231 543.74,356.231 L0.928,356.231 Z" fill="#57585B"></path>
                </g>
            </g>
            <g id="Group" transform="translate(18.000000, 424.545000)" fill="#FFFFFF" fill-rule="nonzero" font-family="Helvetica" font-size="22" font-weight="normal">
                <text id="2005">
                    <tspan x="0.16" y="21">2005</tspan>
                </text>
            </g>
            <g id="Group" transform="translate(106.000000, 424.326000)" fill="#FFFFFF" fill-rule="nonzero" font-family="Helvetica" font-size="22" font-weight="normal">
                <text id="2010">
                    <tspan x="0.383" y="21">2010</tspan>
                </text>
            </g>
            <g id="Group" transform="translate(192.000000, 424.326000)" fill="#FFFFFF" fill-rule="nonzero" font-family="Helvetica" font-size="22" font-weight="normal">
                <text id="2015">
                    <tspan x="0.79" y="21">2015</tspan>
                </text>
            </g>
            <g id="Group" transform="translate(268.000000, 424.326000)" fill="#FFFFFF" fill-rule="nonzero" font-family="Helvetica" font-size="22" font-weight="normal">
                <text id="2020">
                    <tspan x="0.952" y="21">2020</tspan>
                </text>
            </g>
            <g id="Group" transform="translate(344.000000, 424.326000)" fill="#FFFFFF" fill-rule="nonzero" font-family="Helvetica" font-size="22" font-weight="normal">
                <text id="2025">
                    <tspan x="0.436" y="21">2025</tspan>
                </text>
            </g>
            <g id="Group" transform="translate(421.000000, 424.326000)" fill="#FFFFFF" fill-rule="nonzero" font-family="Helvetica" font-size="22" font-weight="normal">
                <text id="2030">
                    <tspan x="0.864" y="21">2030</tspan>
                </text>
            </g>
            <g id="Group" transform="translate(501.000000, 424.326000)" fill="#FFFFFF" fill-rule="nonzero" font-family="Helvetica" font-size="22" font-weight="normal">
                <text id="2035">
                    <tspan x="0.447" y="21">2035</tspan>
                </text>
            </g>
            <g id="Group" transform="translate(656.000000, 424.545000)" fill="#FFFFFF" fill-rule="nonzero" font-family="Helvetica" font-size="22" font-weight="normal">
                <text id="2045">
                    <tspan x="0.512" y="21">2045</tspan>
                </text>
            </g>
            <g id="Group" transform="translate(577.000000, 424.326000)" fill="#FFFFFF" fill-rule="nonzero" font-family="Helvetica" font-size="22" font-weight="normal">
                <text id="2040">
                    <tspan x="0.94" y="21">2040</tspan>
                </text>
            </g>
            <g id="Group" transform="translate(735.000000, 424.545000)" fill="#FFFFFF" fill-rule="nonzero" font-family="Helvetica" font-size="22" font-weight="normal">
                <text id="2050">
                    <tspan x="0.16" y="21">2050</tspan>
                </text>
            </g>
            <line x1="26.5" y1="419" x2="783.867" y2="419" id="Path" stroke="#FFFFFF" stroke-width="4"></line>
        </g>
    </g>
</svg>