<?xml version="1.0" encoding="UTF-8"?>
<svg width="945px" height="768px" viewBox="0 0 945 768" version="1.1" xmlns="http://www.w3.org/2000/svg" xmlns:xlink="http://www.w3.org/1999/xlink">
    <title>Group 296</title>
    <g id="Page-1" stroke="none" stroke-width="1" fill="none" fill-rule="evenodd">
        <g id="Group-296">
            <g id="Group" transform="translate(38.764000, 22.871000)">
                <g transform="translate(0.401000, 0.503000)">
                    <polygon id="Path" points="716.486 68.959 716.486 379.3 0.6 379.3 0.6 22.73 0.869 22.73 0.884 6.463 23.694 8.207 46.787 9.976 52.857 10.439 69.881 7.03 92.974 2.41 102.534 0.496 116.067 3.068 139.16 7.459 154.854 10.439 162.248 14.521 177.126 22.729 185.342 27.264 206.513 38.946 208.435 38.458 231.529 32.602 254.622 26.751 256.186 26.351 277.716 31.375 323.9 42.161 339.684 45.844 346.993 47.544 358.41 50.21 370.086 48.321 385.462 45.839 393.18 44.593 439.367 37.127 456.867 34.301 462.467 35.412 485.555 40.002 508.648 44.602 514.897 45.843 531.742 49.192 554.835 53.782 556.881 54.191 611.851 54.191 624.115 52.291 647.209 48.713 665.751 45.842 667.489 45.573 669.013 45.842 670.303 46.071 693.396 50.148 716.28 54.19 716.28 68.957"></polygon>
                    <path d="M102.542786,2.53509521 L93.3651123,4.37225342 L70.2719727,8.99224854 L53.2481689,12.401062 L52.9780273,12.4551392 L52.703186,12.4341431 L46.6331177,11.9706421 L23.539917,10.2014771 L2.88079834,8.62158203 L2.86779785,22.7316284 L2.86602783,24.7298584 L2.59899902,24.7298584 L2.59899902,377.304749 L714.485596,377.304749 L714.485596,369.679932 L714.485596,369.442017 L714.485596,70.9587402 L714.276367,70.9587402 L714.276367,68.9587402 L714.276367,55.869751 L693.044434,52.119751 L669.948608,48.0426636 L668.661133,47.8137512 L667.463928,47.6022949 L666.053589,47.8207397 L647.511475,50.6913452 L624.417786,54.2697449 L612.153992,56.1685486 L612.001892,56.1920471 L611.848022,56.1920471 L556.87793,56.1920471 L556.680054,56.1920471 L556.486206,56.1533508 L554.441589,55.7449646 L531.348083,51.1549683 L514.504028,47.8059387 L508.254211,46.5648499 L485.161072,41.9699402 L462.07312,37.3800659 L456.829651,36.3387756 L439.688416,39.1071472 L393.501099,46.5727539 L385.783386,47.8186646 L370.408508,50.3004456 L358.732178,52.1893616 L358.342407,52.2524414 L357.958008,52.1626587 L346.541321,49.49646 L339.231567,47.7919617 L323.447388,44.1089478 L277.260925,33.3242493 L256.206238,28.4116516 L255.112976,28.6903687 L232.02002,34.5411682 L208.92749,40.3968506 L207.005615,40.8852539 L206.239197,41.0800476 L205.546814,40.6979675 L184.374878,29.0159607 L176.15979,24.4810486 L161.281372,16.272583 L154.167114,12.3452759 L138.786011,9.42456055 L115.69281,5.03387451 L102.542786,2.53509521 M102.532715,0.497436523 L116.066223,3.06903076 L139.159607,7.45977783 L154.854004,10.4399414 L162.247986,14.5216675 L177.125916,22.7298584 L185.341492,27.2650452 L206.513,38.9468384 L208.434875,38.4584656 L231.528381,32.6025391 L254.621826,26.7516479 L256.185303,26.3530579 L277.715271,31.3765564 L323.902222,42.1613464 L339.686096,45.8442688 L346.995483,47.5487671 L358.412781,50.2150574 L370.089111,48.3261414 L385.464722,45.8442688 L393.182373,44.5983582 L439.369324,37.1327515 L456.866211,34.3069458 L462.462708,35.4183655 L485.551086,40.0083618 L508.644531,44.603363 L514.893494,45.8442688 L531.738098,49.1933594 L554.831543,53.7833557 L556.87793,54.1920471 L611.848022,54.1920471 L624.111816,52.2932434 L647.205322,48.7149658 L665.747559,45.8442688 L667.485474,45.5751648 L669.009033,45.8442688 L670.298706,46.0735474 L693.39209,50.1502686 L716.276367,54.1920471 L716.276367,68.9587402 L716.485596,68.9587402 L716.485596,369.442017 L716.485596,369.679932 L716.485596,379.304749 L0.598999023,379.304749 L0.598999023,22.7298584 L0.867797852,22.7298584 L0.8828125,6.46295166 L23.6923828,8.20727539 L46.7858887,9.97644043 L52.8554688,10.4399414 L69.8792725,7.03112793 L92.9727783,2.41113281 L102.532715,0.497436523 Z" id="Shape" fill="#04A091" fill-rule="nonzero"></path>
                </g>
                <line x1="716.887" y1="369.946" x2="1.001" y2="369.946" id="Path" stroke="#04A091" stroke-width="2"></line>
                <line x1="1" y1="346.827" x2="716.885" y2="346.827" id="Path" stroke="#04A091" stroke-width="2"></line>
                <line x1="1" y1="323.709" x2="716.885" y2="323.709" id="Path" stroke="#04A091" stroke-width="2"></line>
                <line x1="1" y1="300.603" x2="716.885" y2="300.603" id="Path" stroke="#04A091" stroke-width="2"></line>
                <line x1="1" y1="277.489" x2="716.885" y2="277.489" id="Path" stroke="#04A091" stroke-width="2"></line>
                <line x1="1" y1="254.375" x2="716.885" y2="254.375" id="Path" stroke="#04A091" stroke-width="2"></line>
                <line x1="1" y1="231.261" x2="716.885" y2="231.261" id="Path" stroke="#04A091" stroke-width="2"></line>
                <line x1="1" y1="208.147" x2="716.885" y2="208.147" id="Path" stroke="#04A091" stroke-width="2"></line>
                <line x1="1" y1="185.033" x2="716.885" y2="185.033" id="Path" stroke="#04A091" stroke-width="2"></line>
                <line x1="1" y1="161.919" x2="716.885" y2="161.919" id="Path" stroke="#04A091" stroke-width="2"></line>
                <line x1="1" y1="138.805" x2="716.885" y2="138.805" id="Path" stroke="#04A091" stroke-width="2"></line>
                <line x1="1" y1="115.69" x2="716.885" y2="115.69" id="Path" stroke="#04A091" stroke-width="2"></line>
                <line x1="1" y1="92.576" x2="716.885" y2="92.576" id="Path" stroke="#04A091" stroke-width="2"></line>
                <line x1="716.887" y1="69.471" x2="1.001" y2="69.471" id="Path" stroke="#04A091" stroke-width="2"></line>
                <line x1="1.001" y1="46.353" x2="340.447" y2="46.353" id="Path" stroke="#04A091" stroke-width="2"></line>
                <line x1="669.36" y1="46.354" x2="666.095" y2="46.354" id="Path" stroke="#04A091" stroke-width="2"></line>
                <line x1="515.342" y1="46.353" x2="385.776" y2="46.353" id="Path" stroke="#04A091" stroke-width="2"></line>
                <line x1="1.001" y1="23.235" x2="177.714" y2="23.235" id="Path" stroke="#04A091" stroke-width="2"></line>
                <line x1="693.769" y1="379.807" x2="693.769" y2="50.66" id="Path" stroke="#04A091" stroke-width="2"></line>
                <line x1="670.652" y1="46.583" x2="670.652" y2="379.808" id="Path" stroke="#04A091" stroke-width="2"></line>
                <line x1="647.533" y1="379.807" x2="647.533" y2="49.224" id="Path" stroke="#04A091" stroke-width="2"></line>
                <line x1="624.415" y1="379.807" x2="624.415" y2="52.807" id="Path" stroke="#04A091" stroke-width="2"></line>
                <line x1="601.297" y1="379.807" x2="601.297" y2="54.707" id="Path" stroke="#04A091" stroke-width="2"></line>
                <line x1="578.179" y1="379.807" x2="578.179" y2="54.707" id="Path" stroke="#04A091" stroke-width="2"></line>
                <line x1="555.234" y1="379.808" x2="555.234" y2="54.294" id="Path" stroke="#04A091" stroke-width="2"></line>
                <line x1="532.139" y1="379.808" x2="532.139" y2="49.708" id="Path" stroke="#04A091" stroke-width="2"></line>
                <line x1="509.046" y1="45.115" x2="509.046" y2="379.807" id="Path" stroke="#04A091" stroke-width="2"></line>
                <line x1="485.952" y1="40.516" x2="485.952" y2="379.806" id="Path" stroke="#04A091" stroke-width="2"></line>
                <line x1="462.864" y1="35.926" x2="462.864" y2="379.808" id="Path" stroke="#04A091" stroke-width="2"></line>
                <line x1="439.771" y1="37.64" x2="439.771" y2="379.807" id="Path" stroke="#04A091" stroke-width="2"></line>
                <line x1="416.677" y1="41.377" x2="416.677" y2="379.808" id="Path" stroke="#04A091" stroke-width="2"></line>
                <line x1="393.584" y1="379.807" x2="393.584" y2="45.107" id="Path" stroke="#04A091" stroke-width="2"></line>
                <line x1="370.49" y1="48.836" x2="370.49" y2="379.808" id="Path" stroke="#04A091" stroke-width="2"></line>
                <line x1="347.397" y1="48.058" x2="347.397" y2="379.807" id="Path" stroke="#04A091" stroke-width="2"></line>
                <line x1="324.303" y1="42.673" x2="324.303" y2="379.808" id="Path" stroke="#04A091" stroke-width="2"></line>
                <line x1="301.21" y1="379.808" x2="301.21" y2="37.277" id="Path" stroke="#04A091" stroke-width="2"></line>
                <line x1="278.116" y1="379.807" x2="278.116" y2="31.883" id="Path" stroke="#04A091" stroke-width="2"></line>
                <line x1="255.023" y1="27.258" x2="255.023" y2="379.808" id="Path" stroke="#04A091" stroke-width="2"></line>
                <line x1="231.93" y1="33.11" x2="231.93" y2="379.81" id="Path" stroke="#04A091" stroke-width="2"></line>
                <line x1="208.836" y1="379.807" x2="208.836" y2="38.966" id="Path" stroke="#04A091" stroke-width="2"></line>
                <line x1="185.743" y1="379.807" x2="185.743" y2="27.771" id="Path" stroke="#04A091" stroke-width="2"></line>
                <line x1="162.649" y1="379.808" x2="162.649" y2="15.026" id="Path" stroke="#04A091" stroke-width="2"></line>
                <line x1="139.708" y1="7.963" x2="139.708" y2="379.808" id="Path" stroke="#04A091" stroke-width="2"></line>
                <line x1="116.591" y1="379.808" x2="116.591" y2="3.572" id="Path" stroke="#04A091" stroke-width="2"></line>
                <line x1="93.472" y1="2.914" x2="93.472" y2="379.808" id="Path" stroke="#04A091" stroke-width="2"></line>
                <line x1="70.354" y1="7.534" x2="70.354" y2="379.807" id="Path" stroke="#04A091" stroke-width="2"></line>
                <line x1="47.236" y1="379.807" x2="47.236" y2="10.48" id="Path" stroke="#04A091" stroke-width="2"></line>
                <line x1="24.118" y1="8.711" x2="24.118" y2="379.811" id="Path" stroke="#04A091" stroke-width="2"></line>
            </g>
            <g id="Group" transform="translate(38.238000, 19.725000)">
                <polygon id="Path" points="717.412 54.709 717.412 382.955 0.929 382.955 0.974 331.621 0.979 326.321 0.999 302.984 1.019 279.652 1.039 256.315 1.079 209.641 1.099 186.304 1.124 162.967 1.144 139.63 1.164 116.293 1.204 69.619 1.224 46.282 1.244 22.945 1.259 6.521 24.093 8.282 47.211 10.068 53.287 10.536 70.329 7.094 93.447 2.43 103.017 0.498 116.565 3.098 139.683 7.531 155.394 10.54 162.794 14.661 177.688 22.948 185.912 27.527 207.106 39.321 209.03 38.828 232.148 32.916 255.267 27 256.832 26.6 278.385 31.672 324.621 42.561 340.421 46.279 347.739 48 359.169 50.692 370.858 48.785 386.25 46.279 393.976 45.021 440.212 37.483 457.728 34.63 463.328 35.752 486.441 40.386 509.559 45.025 515.815 46.278 532.677 49.659 555.8 54.3 557.849 54.713 612.878 54.713 625.155 52.796 648.273 49.183 666.835 46.283 668.575 46.011 670.1 46.283 671.391 46.514 694.509 50.63"></polygon>
                <path d="M103.036194,4.57409668 L94.2370605,6.35058594 L71.1196289,11.0148315 L54.0777588,14.456543 L53.5330811,14.5665894 L52.9788818,14.5239258 L46.9017334,14.0560303 L23.7843628,12.2697144 L5.25421143,10.8405151 L5.24316406,22.9473877 L5.22314453,46.2846069 L5.20324707,69.6218262 L5.16333008,116.296204 L5.14337158,139.633423 L5.12353516,162.971405 L5.09863281,186.307709 L5.07855225,209.644928 L5.03863525,256.319305 L5.01873779,279.656525 L4.99884033,302.988617 L4.97894287,326.326233 L4.97393799,331.624329 L4.93255615,378.95459 L713.412231,378.95459 L713.412231,58.0597534 L693.80249,54.5667114 L670.679688,50.4499207 L669.393188,50.2192078 L668.526123,50.0647583 L667.446899,50.2333069 L648.885254,53.1315002 L625.766724,56.7444153 L613.48999,58.6614075 L613.183228,58.7093201 L612.872864,58.7093201 L557.84436,58.7093201 L557.445557,58.7093201 L557.054565,58.6306152 L555.009521,58.2187195 L531.891235,53.5844116 L515.029663,50.2033081 L508.772644,48.9501038 L485.655334,44.3109131 L462.54303,39.6769104 L457.652771,38.6974487 L440.85437,41.4336243 L394.617554,48.9713135 L386.891541,50.2292175 L371.500977,52.7348022 L359.812378,54.6418152 L359.026367,54.7700195 L358.251282,54.5875244 L346.822937,51.8959045 L339.505371,50.1748047 L323.703979,46.4562073 L277.468567,35.5677185 L256.874512,30.721344 L256.262939,30.8786011 L256.260071,30.879303 L256.25708,30.880127 L233.139954,36.7872009 L210.023926,42.6989136 L208.099976,43.1920166 L206.555176,43.5879211 L205.161743,42.8124084 L183.967163,31.0178223 L175.74353,26.4393311 L160.848938,18.1514893 L154.009094,14.3433838 L138.928528,11.4552002 L115.810974,7.0223999 L103.036194,4.57409668 M103.016052,0.497436523 L116.563843,3.09393311 L139.681885,7.52679443 L155.392944,10.5357056 L162.794739,14.6567383 L177.688477,22.9440308 L185.912842,27.5229187 L207.106873,39.3171997 L209.030884,38.8241272 L232.148865,32.9119263 L255.266785,27.0046387 L256.83197,26.6021118 L278.384827,31.6741028 L324.62085,42.5627136 L340.421631,46.2812195 L347.73877,48.0021057 L359.168274,50.6940002 L370.856873,48.7870178 L386.24884,46.2812195 L393.974731,45.0233154 L440.210754,37.4857178 L457.726257,34.6327209 L463.328674,35.7548218 L486.441772,40.3890076 L509.559692,45.0283203 L515.815186,46.2812195 L532.677612,49.6625061 L555.795776,54.2967224 L557.84436,54.7093201 L612.872864,54.7093201 L625.149658,52.7923279 L648.267639,49.1795044 L666.829712,46.2812195 L668.569458,46.0095215 L670.094666,46.2812195 L671.38562,46.5127258 L694.50354,50.6286011 L717.412231,54.7093201 L717.412231,382.95459 L0.929077148,382.95459 L0.973937988,331.620819 L0.978942871,326.322418 L0.998840332,302.985229 L1.01873779,279.653107 L1.03863525,256.315918 L1.07855225,209.64151 L1.09863281,186.304321 L1.12353516,162.967102 L1.14337158,139.630005 L1.16333008,116.292816 L1.20324707,69.6184082 L1.22314453,46.2812195 L1.24316406,22.9440308 L1.25817871,6.52038574 L24.09198,8.28149414 L47.2099609,10.0679321 L53.2859497,10.5357056 L70.3278809,7.09399414 L93.4459839,2.42962646 L103.016052,0.497436523 Z" id="Shape" fill="#04A091" fill-rule="nonzero"></path>
            </g>
            <path d="M39.167,402.678 L39.498,65.578 L90.698,71.222 L142.91,67.741 L193.631,77.189 L243.357,101.555 L296.564,90.615 L351.764,98.571 L396.518,110.008 L444.752,104.041 L500.439,99.563 C500.439,99.563 558.619,113.487 654.59,116.47 C679.95,111.497 703.819,107.519 703.819,107.519 L755.645,115.475 L755.645,402.678 L39.167,402.678 Z" id="Path" fill="#58595B" fill-rule="nonzero"></path>
            <polygon id="Path" fill="#92AEC5" fill-rule="nonzero" points="39.166 402.678 39.166 125.421 92.188 129.399 143.904 121.76 197.604 132.881 245.838 148.295 294.57 141.333 347.777 149.786 397.006 162.715 460.158 155.753 499.442 153.764 563.589 162.715 614.31 167.688 655.086 169.677 704.812 163.213 755.643 171.666 755.643 402.678"></polygon>
            <polygon id="Path" fill="#E1E6F0" fill-rule="nonzero" points="39.166 402.679 39.498 234.128 92.189 241.782 139.429 234.128 194.629 236.809 242.863 250.235 297.563 243.771 346.295 250.235 399.005 262.169 451.218 257.196 500.447 255.704 593.932 269.627 654.101 275.097 705.816 271.119 755.653 278.578 755.653 402.678"></polygon>
            <polygon id="Path" fill="#FFCB00" fill-rule="nonzero" points="39.166 402.679 39.498 267.639 93.681 270.623 140.921 267.639 195.121 270.623 244.35 281.563 294.574 275.099 354.743 282.558 397.508 288.028 501.436 287.528 549.173 294.987 652.604 305.43 707.304 303.441 755.649 313.386 755.649 402.678"></polygon>
            <polygon id="Path" fill="#FFCB00" fill-rule="nonzero" points="39.167 402.68 39.167 335.16 197.702 333.06 241.461 339.36 297.818 337.043 393.955 344.668 504.679 342.679 653.195 354.943 705.573 353.617 755.648 358.258 755.648 402.68"></polygon>
            <g id="Group">
                <g transform="translate(0.000000, 387.000000)" fill="#FFFFFF" fill-rule="nonzero" font-family="Helvetica" font-size="18" font-weight="normal" id="0">
                    <text>
                        <tspan x="0.444" y="18">0</tspan>
                    </text>
                </g>
                <g transform="translate(0.000000, 56.000000)" fill="#FFFFFF" fill-rule="nonzero" font-family="Helvetica" font-size="18" font-weight="normal" id="6">
                    <text>
                        <tspan x="0.948" y="18">6</tspan>
                    </text>
                </g>
                <g transform="translate(1.000000, 0.000000)" fill="#FFFFFF" fill-rule="nonzero" font-family="Helvetica" font-size="18" font-weight="normal" id="7">
                    <text>
                        <tspan x="0.992" y="18">7</tspan>
                    </text>
                </g>
                <g transform="translate(1.000000, 112.000000)" fill="#FFFFFF" fill-rule="nonzero" font-family="Helvetica" font-size="18" font-weight="normal" id="5">
                    <text>
                        <tspan x="0.11" y="18">5</tspan>
                    </text>
                </g>
                <g transform="translate(0.000000, 168.000000)" fill="#FFFFFF" fill-rule="nonzero" font-family="Helvetica" font-size="18" font-weight="normal" id="4">
                    <text>
                        <tspan x="0.75" y="18">4</tspan>
                    </text>
                </g>
                <g transform="translate(0.000000, 225.000000)" fill="#FFFFFF" fill-rule="nonzero" font-family="Helvetica" font-size="18" font-weight="normal" id="3">
                    <text>
                        <tspan x="0.866" y="18">3</tspan>
                    </text>
                </g>
                <g transform="translate(1.000000, 281.000000)" fill="#FFFFFF" fill-rule="nonzero" font-family="Helvetica" font-size="18" font-weight="normal" id="2">
                    <text>
                        <tspan x="0.758" y="18">2</tspan>
                    </text>
                </g>
                <g transform="translate(3.000000, 337.000000)" fill="#FFFFFF" fill-rule="nonzero" font-family="Helvetica" font-size="18" font-weight="normal" id="1">
                    <text>
                        <tspan x="0.384" y="18">1</tspan>
                    </text>
                </g>
                <g opacity="0.295" transform="translate(20.000000, 11.000000)" id="Path" stroke="#FFFFFF">
                    <line x1="0.5" y1="0.5" x2="758.72" y2="0.5"></line>
                    <line x1="0.5" y1="56.5" x2="758.72" y2="56.5"></line>
                    <line x1="0.5" y1="112.5" x2="758.72" y2="112.5"></line>
                    <line x1="0.5" y1="168.5" x2="758.72" y2="168.5"></line>
                    <line x1="0.5" y1="224.5" x2="758.72" y2="224.5"></line>
                    <line x1="0.5" y1="280.5" x2="758.72" y2="280.5"></line>
                    <line x1="0.5" y1="337.5" x2="758.72" y2="337.5"></line>
                </g>
            </g>
            <g id="Group" transform="translate(20.500000, 401.680000)" stroke="#FFFFFF" stroke-width="4">
                <line x1="0" y1="1" x2="757.367" y2="1" id="Path"></line>
            </g>
            <g id="Group" transform="translate(12.000000, 408.545000)" fill="#FFFFFF" fill-rule="nonzero" font-family="Helvetica" font-size="22" font-weight="normal">
                <text id="2005">
                    <tspan x="0.16" y="21">2005</tspan>
                </text>
            </g>
            <g id="Group" transform="translate(120.000000, 408.326000)" fill="#FFFFFF" fill-rule="nonzero" font-family="Helvetica" font-size="22" font-weight="normal">
                <text id="2007">
                    <tspan x="0.831" y="21">2007</tspan>
                </text>
            </g>
            <g id="Group" transform="translate(227.000000, 408.326000)" fill="#FFFFFF" fill-rule="nonzero" font-family="Helvetica" font-size="22" font-weight="normal">
                <text id="2009">
                    <tspan x="0.061" y="21">2009</tspan>
                </text>
            </g>
            <g id="Group" transform="translate(336.000000, 408.326000)" fill="#FFFFFF" fill-rule="nonzero" font-family="Helvetica" font-size="22" font-weight="normal">
                <text id="2011">
                    <tspan x="0.013" y="21">2011</tspan>
                </text>
            </g>
            <g id="Group" transform="translate(431.000000, 408.326000)" fill="#FFFFFF" fill-rule="nonzero" font-family="Helvetica" font-size="22" font-weight="normal">
                <text id="2013">
                    <tspan x="0.252" y="21">2013</tspan>
                </text>
            </g>
            <g id="Group" transform="translate(530.000000, 408.326000)" fill="#FFFFFF" fill-rule="nonzero" font-family="Helvetica" font-size="22" font-weight="normal">
                <text id="2015">
                    <tspan x="0.79" y="21">2015</tspan>
                </text>
            </g>
            <g id="Group" transform="translate(632.000000, 408.326000)" fill="#FFFFFF" fill-rule="nonzero" font-family="Helvetica" font-size="22" font-weight="normal">
                <text id="2017">
                    <tspan x="0.329" y="21">2017</tspan>
                </text>
            </g>
            <g id="Group" transform="translate(732.000000, 408.326000)" fill="#FFFFFF" fill-rule="nonzero" font-family="Helvetica" font-size="22" font-weight="normal">
                <text id="2019">
                    <tspan x="0.691" y="21">2019</tspan>
                </text>
            </g>
            <g id="Group" transform="translate(778.720000, 322.000000)" fill="#FFCC00" fill-rule="nonzero" font-family="Metropolis-Black, Metropolis" font-size="54" font-weight="700">
                <text id="&gt;-30%">
                    <tspan x="0" y="54">&gt; 30%</tspan>
                </text>
            </g>
            <g id="Group" transform="translate(101.629000, 594.545000)" fill="#FFFFFF" fill-rule="nonzero" font-family="Metropolis-Bold, Metropolis" font-size="32" font-weight="bold">
                <text id="Transport">
                    <tspan x="0" y="31">Transport</tspan>
                </text>
            </g>
            <rect id="Rectangle" fill="#92AEC5" fill-rule="nonzero" x="54.629" y="600.545" width="32" height="32"></rect>
            <g id="Group" transform="translate(101.629000, 726.545000)" fill="#FFFFFF" fill-rule="nonzero" font-family="Metropolis-Bold, Metropolis" font-size="32" font-weight="bold">
                <text id="Total-Net-Emissions">
                    <tspan x="0" y="31">Total Net Emissions</tspan>
                </text>
            </g>
            <g id="Group" transform="translate(54.629000, 732.545000)">
                <rect id="Rectangle" x="0" y="0" width="32" height="32"></rect>
                <rect id="Rectangle" stroke="#04A091" stroke-width="6" x="3" y="3" width="26" height="26"></rect>
            </g>
            <g id="Group" transform="translate(101.629000, 528.545000)" fill="#FFFFFF" fill-rule="nonzero" font-family="Metropolis-Bold, Metropolis" font-size="32" font-weight="bold">
                <text id="Buildings">
                    <tspan x="0" y="31">Buildings</tspan>
                </text>
            </g>
            <rect id="Rectangle" fill="#E1E6F0" fill-rule="nonzero" x="54.629" y="534.545" width="32" height="32"></rect>
            <g id="Group" transform="translate(101.629000, 660.545000)" fill="#FFFFFF" fill-rule="nonzero" font-family="Metropolis-Bold, Metropolis" font-size="32" font-weight="bold">
                <text id="Industry">
                    <tspan x="0" y="31">Industry</tspan>
                </text>
            </g>
            <rect id="Rectangle" fill="#58595B" fill-rule="nonzero" x="54.629" y="666.545" width="32" height="32"></rect>
            <g id="Group" transform="translate(101.629000, 462.545000)" fill="#FFFFFF" fill-rule="nonzero" font-family="Metropolis-Bold, Metropolis" font-size="32" font-weight="bold">
                <text id="Electricity">
                    <tspan x="0" y="31">Electricity</tspan>
                </text>
            </g>
            <rect id="Rectangle" fill="#FFCB00" fill-rule="nonzero" x="54.629" y="468.545" width="32" height="32"></rect>
        </g>
    </g>
</svg>