<?xml version="1.0" encoding="UTF-8"?>
<svg width="968px" height="613px" viewBox="0 0 968 613" version="1.1" xmlns="http://www.w3.org/2000/svg" xmlns:xlink="http://www.w3.org/1999/xlink">
    <title>Group 287</title>
    <g id="Page-1" stroke="none" stroke-width="1" fill="none" fill-rule="evenodd">
        <g id="Group-287">
            <g id="Group" transform="translate(138.907000, 13.357000)" fill-rule="nonzero">
                <g fill="#5292D1" id="Rectangle">
                    <rect x="0" y="218.192" width="29.136" height="133.896"></rect>
                    <rect x="46.95" y="217.341" width="29.136" height="134.747"></rect>
                    <rect x="93.9" y="209.445" width="29.136" height="142.643"></rect>
                    <rect x="140.85" y="193.345" width="29.136" height="158.743"></rect>
                    <rect x="187.8" y="169.22" width="29.136" height="182.868"></rect>
                    <rect x="234.75" y="150.497" width="29.136" height="201.591"></rect>
                    <rect x="281.7" y="133.575" width="29.136" height="218.513"></rect>
                    <rect x="328.649" y="106.695" width="29.136" height="245.393"></rect>
                    <rect x="375.599" y="94.742" width="29.136" height="257.347"></rect>
                    <rect x="422.549" y="76.358" width="29.136" height="275.73"></rect>
                    <rect x="469.499" y="53.968" width="29.136" height="298.12"></rect>
                    <rect x="516.449" y="34.759" width="29.136" height="317.329"></rect>
                    <rect x="563.399" y="40.096" width="29.136" height="311.992"></rect>
                    <rect x="610.349" y="20.796" width="29.136" height="331.293"></rect>
                    <rect x="657.299" y="0" width="29.136" height="351.604"></rect>
                </g>
                <g transform="translate(0.000000, 113.609000)" fill="#D9A91A" id="Rectangle">
                    <rect x="0" y="147.045" width="29.136" height="91.434"></rect>
                    <rect x="46.95" y="146.019" width="29.136" height="92.46"></rect>
                    <rect x="94.091" y="137.956" width="29.136" height="100.523"></rect>
                    <rect x="140.85" y="128.35" width="29.136" height="110.129"></rect>
                    <rect x="187.8" y="108.154" width="29.136" height="130.325"></rect>
                    <rect x="234.75" y="93.147" width="29.136" height="145.332"></rect>
                    <rect x="281.7" y="81.521" width="29.136" height="156.958"></rect>
                    <rect x="328.649" y="66.692" width="29.136" height="171.787"></rect>
                    <rect x="375.599" y="56.913" width="29.136" height="181.566"></rect>
                    <rect x="422.549" y="42.971" width="29.136" height="195.508"></rect>
                    <rect x="469.499" y="32.515" width="29.136" height="205.964"></rect>
                    <rect x="516.449" y="19.06" width="29.136" height="219.419"></rect>
                    <rect x="563.399" y="26.349" width="29.136" height="212.13"></rect>
                    <rect x="610.349" y="16.968" width="29.136" height="221.511"></rect>
                    <rect x="657.299" y="0" width="29.136" height="237.995"></rect>
                </g>
            </g>
            <polygon id="Path" fill="#E1E6F0" fill-rule="nonzero" points="812.379 133.411 766.71 108.674 724.288 114.459 578.679 59.128 531.141 56.276 486.032 68.045 388.373 24.533 342.556 43.055 292.488 9.676 247.388 5.918 204.088 22.274 153.377 29.1 152.6 23.325 202.652 16.587 246.552 0.001 294.463 3.994 343.22 36.494 388.477 18.194 486.531 61.882 530.559 50.396 579.91 53.357 724.971 108.485 767.81 102.645 815.154 128.289"></polygon>
            <g id="Group" transform="translate(123.278000, 364.171000)" stroke="#FFFFFF" stroke-width="4">
                <line x1="0" y1="1.271" x2="716.647" y2="1.271" id="Path"></line>
            </g>
            <g id="Group" transform="translate(125.998000, 371.091000)" fill="#FFFFFF" fill-rule="nonzero" font-family="Helvetica" font-size="22" font-weight="normal">
                <text id="2005">
                    <tspan x="0.16" y="21">2005</tspan>
                </text>
            </g>
            <g id="Group" transform="translate(219.998000, 371.091000)" fill="#FFFFFF" fill-rule="nonzero" font-family="Helvetica" font-size="22" font-weight="normal">
                <text id="2007">
                    <tspan x="0.831" y="21">2007</tspan>
                </text>
            </g>
            <g id="Group" transform="translate(313.998000, 371.091000)" fill="#FFFFFF" fill-rule="nonzero" font-family="Helvetica" font-size="22" font-weight="normal">
                <text id="2009">
                    <tspan x="0.061" y="21">2009</tspan>
                </text>
            </g>
            <g id="Group" transform="translate(414.998000, 371.091000)" fill="#FFFFFF" fill-rule="nonzero" font-family="Helvetica" font-size="22" font-weight="normal">
                <text id="2011">
                    <tspan x="0.013" y="21">2011</tspan>
                </text>
            </g>
            <g id="Group" transform="translate(504.998000, 371.091000)" fill="#FFFFFF" fill-rule="nonzero" font-family="Helvetica" font-size="22" font-weight="normal">
                <text id="2013">
                    <tspan x="0.252" y="21">2013</tspan>
                </text>
            </g>
            <g id="Group" transform="translate(597.998000, 371.091000)" fill="#FFFFFF" fill-rule="nonzero" font-family="Helvetica" font-size="22" font-weight="normal">
                <text id="2015">
                    <tspan x="0.79" y="21">2015</tspan>
                </text>
            </g>
            <g id="Group" transform="translate(692.998000, 371.091000)" fill="#FFFFFF" fill-rule="nonzero" font-family="Helvetica" font-size="22" font-weight="normal">
                <text id="2017">
                    <tspan x="0.329" y="21">2017</tspan>
                </text>
            </g>
            <g id="Group" transform="translate(785.998000, 371.091000)" fill="#FFFFFF" fill-rule="nonzero" font-family="Helvetica" font-size="22" font-weight="normal">
                <text id="2019">
                    <tspan x="0.691" y="21">2019</tspan>
                </text>
            </g>
            <g id="Group" transform="translate(185.907000, 574.091000)" fill="#FFFFFF" fill-rule="nonzero" font-family="Metropolis-Bold, Metropolis" font-size="32" font-weight="bold">
                <text id="CO2-Emissions-(MMT)">
                    <tspan x="0" y="31">CO2 Emissions (MMT)</tspan>
                </text>
            </g>
            <rect id="Rectangle" fill="#E1E6F0" fill-rule="nonzero" x="138.907" y="580.091" width="32" height="32"></rect>
            <g id="Group" transform="translate(185.907000, 508.091000)" fill="#FFFFFF" fill-rule="nonzero" font-family="Metropolis-Bold, Metropolis" font-size="32" font-weight="bold">
                <text id="Clean-Assets-($B)">
                    <tspan x="0" y="31">Clean Assets ($B)</tspan>
                </text>
            </g>
            <rect id="Rectangle" fill="#5292D1" fill-rule="nonzero" x="138.907" y="514.091" width="32" height="32"></rect>
            <g id="Group" transform="translate(185.907000, 442.091000)" fill="#FFFFFF" fill-rule="nonzero" font-family="Metropolis-Bold, Metropolis" font-size="32" font-weight="bold">
                <text id="Fossil-Assets-($B)">
                    <tspan x="0" y="31">Fossil Assets ($B)</tspan>
                </text>
            </g>
            <rect id="Rectangle" fill="#D9A91A" fill-rule="nonzero" x="138.907" y="448.091" width="32" height="32"></rect>
            <g id="Group" transform="translate(-0.002000, 253.091000)" fill-rule="nonzero">
                <path d="M115,1 L128,22 L115,43 L115,1 Z M0,42.955 L0,0.955 L115,0.955 L115,42.955 L0,42.955 Z" id="Shape" fill="#D9A91A"></path>
                <g transform="translate(23.000000, 9.000000)" fill="#FFFFFF" font-family="Helvetica" font-size="22" font-weight="normal" id="100-$B">
                    <text>
                        <tspan x="0.848" y="21">100 $B</tspan>
                    </text>
                </g>
            </g>
            <polygon id="Path" fill="#D9A91A" fill-rule="nonzero" points="852.998 145.09 839.998 124.09 852.998 103.09 967.998 103.09 967.998 145.09"></polygon>
            <g id="Group" transform="translate(862.998000, 111.091000)" fill="#FFFFFF" fill-rule="nonzero" font-family="Helvetica" font-size="22" font-weight="normal">
                <text id="180-$B">
                    <tspan x="0.54" y="21">180 $B</tspan>
                </text>
            </g>
        </g>
    </g>
</svg>