<?xml version="1.0" encoding="UTF-8"?>
<svg width="817px" height="699px" viewBox="0 0 817 699" version="1.1" xmlns="http://www.w3.org/2000/svg" xmlns:xlink="http://www.w3.org/1999/xlink">
    <title>Group 305</title>
    <g id="Page-1" stroke="none" stroke-width="1" fill="none" fill-rule="evenodd">
        <g id="Group-305">
            <g id="Group" opacity="0.45" transform="translate(39.000000, 65.000000)" fill-rule="nonzero">
                <path d="M0.167,337.678 L0.498,0.578 L51.698,6.222 L103.91,2.741 L154.631,12.189 L204.357,36.555 L257.564,25.615 L312.764,33.571 L357.518,45.008 L405.752,39.041 L461.439,34.563 C461.439,34.563 519.619,48.487 615.59,51.47 C640.95,46.497 664.819,42.519 664.819,42.519 L716.645,50.475 L716.645,337.678 L0.167,337.678 Z" id="Path" fill="#58595B"></path>
                <polygon id="Path" fill="#92AEC5" points="0.166 337.678 0.166 60.421 53.188 64.399 104.904 56.76 158.604 67.881 206.838 83.295 255.57 76.333 308.777 84.786 358.006 97.715 421.158 90.753 460.442 88.764 524.589 97.715 575.31 102.688 616.086 104.677 665.812 98.213 716.643 106.666 716.643 337.678"></polygon>
                <polygon id="Path" fill="#E1E6F0" points="0.166 337.679 0.498 169.128 53.189 176.782 100.429 169.128 155.629 171.809 203.863 185.235 258.563 178.771 307.295 185.235 360.005 197.169 412.218 192.196 461.447 190.704 554.932 204.627 615.101 210.097 666.816 206.119 716.653 213.578 716.653 337.678"></polygon>
                <polygon id="Path" fill="#FFCB00" points="0.166 337.679 0.498 202.639 54.681 205.623 101.921 202.639 156.121 205.623 205.35 216.563 255.574 210.099 315.743 217.558 358.508 223.028 462.436 222.528 510.173 229.987 613.604 240.43 668.304 238.441 716.649 248.386 716.649 337.678"></polygon>
            </g>
            <polygon id="Path" fill="#FFCB00" fill-rule="nonzero" points="39.167 402.68 39.167 335.16 197.702 333.06 241.461 339.36 297.818 337.043 393.955 344.668 504.679 342.679 653.195 354.943 705.573 353.617 755.648 358.258 755.648 402.68"></polygon>
            <g id="Group">
                <g transform="translate(0.000000, 387.000000)" fill="#FFFFFF" fill-rule="nonzero" font-family="Helvetica" font-size="18" font-weight="normal" id="0">
                    <text>
                        <tspan x="0.444" y="18">0</tspan>
                    </text>
                </g>
                <g transform="translate(0.000000, 56.000000)" fill="#FFFFFF" fill-rule="nonzero" font-family="Helvetica" font-size="18" font-weight="normal" id="6">
                    <text>
                        <tspan x="0.948" y="18">6</tspan>
                    </text>
                </g>
                <g transform="translate(1.000000, 0.000000)" fill="#FFFFFF" fill-rule="nonzero" font-family="Helvetica" font-size="18" font-weight="normal" id="7">
                    <text>
                        <tspan x="0.992" y="18">7</tspan>
                    </text>
                </g>
                <g transform="translate(1.000000, 112.000000)" fill="#FFFFFF" fill-rule="nonzero" font-family="Helvetica" font-size="18" font-weight="normal" id="5">
                    <text>
                        <tspan x="0.11" y="18">5</tspan>
                    </text>
                </g>
                <g transform="translate(0.000000, 168.000000)" fill="#FFFFFF" fill-rule="nonzero" font-family="Helvetica" font-size="18" font-weight="normal" id="4">
                    <text>
                        <tspan x="0.75" y="18">4</tspan>
                    </text>
                </g>
                <g transform="translate(0.000000, 225.000000)" fill="#FFFFFF" fill-rule="nonzero" font-family="Helvetica" font-size="18" font-weight="normal" id="3">
                    <text>
                        <tspan x="0.866" y="18">3</tspan>
                    </text>
                </g>
                <g transform="translate(1.000000, 281.000000)" fill="#FFFFFF" fill-rule="nonzero" font-family="Helvetica" font-size="18" font-weight="normal" id="2">
                    <text>
                        <tspan x="0.758" y="18">2</tspan>
                    </text>
                </g>
                <g transform="translate(3.000000, 337.000000)" fill="#FFFFFF" fill-rule="nonzero" font-family="Helvetica" font-size="18" font-weight="normal" id="1">
                    <text>
                        <tspan x="0.384" y="18">1</tspan>
                    </text>
                </g>
                <g opacity="0.295" transform="translate(20.000000, 11.000000)" id="Path" stroke="#FFFFFF">
                    <line x1="0.5" y1="0.5" x2="758.72" y2="0.5"></line>
                    <line x1="0.5" y1="56.5" x2="758.72" y2="56.5"></line>
                    <line x1="0.5" y1="112.5" x2="758.72" y2="112.5"></line>
                    <line x1="0.5" y1="168.5" x2="758.72" y2="168.5"></line>
                    <line x1="0.5" y1="224.5" x2="758.72" y2="224.5"></line>
                    <line x1="0.5" y1="280.5" x2="758.72" y2="280.5"></line>
                    <line x1="0.5" y1="337.5" x2="758.72" y2="337.5"></line>
                </g>
            </g>
            <g id="Group" transform="translate(101.629000, 594.545000)" fill="#FFFFFF" fill-rule="nonzero" font-family="Metropolis-Bold, Metropolis" font-size="32" font-weight="bold">
                <text id="Transport">
                    <tspan x="0" y="31">Transport</tspan>
                </text>
            </g>
            <rect id="Rectangle" fill="#92AEC5" fill-rule="nonzero" opacity="0.45" x="54.629" y="600.545" width="32" height="32"></rect>
            <g id="Group" transform="translate(101.629000, 528.545000)" fill="#FFFFFF" fill-rule="nonzero" font-family="Metropolis-Bold, Metropolis" font-size="32" font-weight="bold">
                <text id="Buildings">
                    <tspan x="0" y="31">Buildings</tspan>
                </text>
            </g>
            <rect id="Rectangle" fill="#E1E6F0" fill-rule="nonzero" opacity="0.45" x="54.629" y="534.545" width="32" height="32"></rect>
            <g id="Group" transform="translate(101.629000, 660.545000)" fill="#FFFFFF" fill-rule="nonzero" font-family="Metropolis-Bold, Metropolis" font-size="32" font-weight="bold">
                <text id="Industry">
                    <tspan x="0" y="31">Industry</tspan>
                </text>
            </g>
            <rect id="Rectangle" fill="#58595B" fill-rule="nonzero" opacity="0.45" x="54.629" y="666.545" width="32" height="32"></rect>
            <g id="Group" transform="translate(101.629000, 462.545000)" fill="#FFFFFF" fill-rule="nonzero" font-family="Metropolis-Bold, Metropolis" font-size="32" font-weight="bold">
                <text id="Electricity">
                    <tspan x="0" y="31">Electricity</tspan>
                </text>
            </g>
            <rect id="Rectangle" fill="#FFCB00" fill-rule="nonzero" opacity="0.45" x="54.629" y="468.545" width="32" height="32"></rect>
            <g id="Group" transform="translate(478.629000, 462.545000)" fill="#FFFFFF" fill-rule="nonzero" font-family="Metropolis-Bold, Metropolis" font-size="32" font-weight="bold">
                <text id="Electricity:-Regulated">
                    <tspan x="0" y="31">Electricity: Regulated</tspan>
                </text>
            </g>
            <rect id="Rectangle" fill="#FFCB00" fill-rule="nonzero" x="431.629" y="468.545" width="32" height="32"></rect>
            <g id="Group" transform="translate(12.000000, 408.545000)" fill="#FFFFFF" fill-rule="nonzero" font-family="Helvetica" font-size="22" font-weight="normal">
                <text id="2005">
                    <tspan x="0.16" y="21">2005</tspan>
                </text>
            </g>
            <g id="Group" transform="translate(120.000000, 408.326000)" fill="#FFFFFF" fill-rule="nonzero" font-family="Helvetica" font-size="22" font-weight="normal">
                <text id="2007">
                    <tspan x="0.831" y="21">2007</tspan>
                </text>
            </g>
            <g id="Group" transform="translate(227.000000, 408.326000)" fill="#FFFFFF" fill-rule="nonzero" font-family="Helvetica" font-size="22" font-weight="normal">
                <text id="2009">
                    <tspan x="0.061" y="21">2009</tspan>
                </text>
            </g>
            <g id="Group" transform="translate(336.000000, 408.326000)" fill="#FFFFFF" fill-rule="nonzero" font-family="Helvetica" font-size="22" font-weight="normal">
                <text id="2011">
                    <tspan x="0.013" y="21">2011</tspan>
                </text>
            </g>
            <g id="Group" transform="translate(431.000000, 408.326000)" fill="#FFFFFF" fill-rule="nonzero" font-family="Helvetica" font-size="22" font-weight="normal">
                <text id="2013">
                    <tspan x="0.252" y="21">2013</tspan>
                </text>
            </g>
            <g id="Group" transform="translate(530.000000, 408.326000)" fill="#FFFFFF" fill-rule="nonzero" font-family="Helvetica" font-size="22" font-weight="normal">
                <text id="2015">
                    <tspan x="0.79" y="21">2015</tspan>
                </text>
            </g>
            <g id="Group" transform="translate(632.000000, 408.326000)" fill="#FFFFFF" fill-rule="nonzero" font-family="Helvetica" font-size="22" font-weight="normal">
                <text id="2017">
                    <tspan x="0.329" y="21">2017</tspan>
                </text>
            </g>
            <g id="Group" transform="translate(732.000000, 408.326000)" fill="#FFFFFF" fill-rule="nonzero" font-family="Helvetica" font-size="22" font-weight="normal">
                <text id="2019">
                    <tspan x="0.691" y="21">2019</tspan>
                </text>
            </g>
            <g id="Group" transform="translate(20.500000, 401.680000)" stroke="#FFFFFF" stroke-width="4">
                <line x1="0" y1="1" x2="757.367" y2="1" id="Path"></line>
            </g>
        </g>
    </g>
</svg>